<svg width="29" height="29" viewBox="0 0 29 29" fill="none" xmlns="http://www.w3.org/2000/svg">
<g clip-path="url(#clip0)">
<rect width="28" height="28" transform="translate(0.0272369 0.781128)" fill="white"/>
<path d="M14.0281 0.781127L5.95741 13.7684L5.33507 14.8099L5.30544 14.8615C4.61089 16.2057 4.24241 17.6887 4.22868 19.1951C4.23478 21.7373 5.26949 24.1735 7.1062 25.9703C8.94292 27.767 11.4319 28.7777 14.0281 28.7811C15.6869 28.783 17.319 28.372 18.771 27.5866C20.2231 26.8013 21.4474 25.6674 22.3291 24.2915C23.2107 22.9156 23.7207 21.3429 23.8112 19.721C23.9017 18.0991 23.5697 16.4812 22.8463 15.0195L14.0281 0.781127Z" fill="black"/>
</g>
<defs>
<clipPath id="clip0">
<rect width="28" height="28" fill="white" transform="translate(0.0272369 0.781128)"/>
</clipPath>
</defs>
</svg>
