<svg xmlns="http://www.w3.org/2000/svg" width="29" height="29" viewBox="0 0 29 29" fill="none"><g clip-path="url(#clip0)"><path d="M16.7 3.6L16.8 3.8 27.6 22.6C28.8 24.7 27.3 27.3 25 27.4H24.8 3.2C0.8 27.4-0.7 24.9 0.4 22.7L0.5 22.6 11.2 3.8C12.4 1.7 15.2 1.6 16.6 3.4L16.7 3.6ZM12.9 4.7L2.1 23.5C1.6 24.4 2.3 25.5 3.2 25.5H24.8C25.8 25.5 26.4 24.4 25.9 23.5L15.1 4.7C14.6 3.9 13.4 3.9 12.9 4.7ZM14 20.3C14.7 20.3 15.3 20.8 15.3 21.5 15.3 22.2 14.7 22.8 14 22.8 13.3 22.8 12.7 22.2 12.7 21.5 12.7 20.8 13.3 20.3 14 20.3ZM14 9.1C14.6 9.1 15.1 9.5 15.1 10.1V10.2 18C15.1 18.6 14.6 19.1 14 19.1 13.5 19.1 13 18.7 12.9 18.1V18 10.2C12.9 9.6 13.4 9.1 14 9.1Z" fill="#010000"/></g><defs><clipPath><rect width="28" height="28" fill="white"/></clipPath></defs></svg>
